<svg width="647" height="140" viewBox="0 0 647 140" fill="none" xmlns="http://www.w3.org/2000/svg">
<path d="M221.773 62.8239C219.307 53.3182 211.869 47.1136 198.665 47.1136C184.864 47.1136 175.08 54.392 175.08 65.2102C175.08 73.8807 180.33 79.6477 191.784 82.1932L202.125 84.4602C208.011 85.7727 210.756 88.3977 210.756 92.2159C210.756 96.9489 205.705 100.648 197.909 100.648C190.79 100.648 186.216 97.5852 184.784 91.5795L173.29 93.3295C175.278 104.148 184.267 110.233 197.989 110.233C212.744 110.233 222.966 102.398 222.966 91.3409C222.966 82.7102 217.477 77.3807 206.261 74.7955L196.557 72.5682C189.835 70.9773 186.932 68.7102 186.972 64.5739C186.932 59.8807 192.023 56.5398 198.784 56.5398C206.182 56.5398 209.602 60.6364 210.994 64.733L221.773 62.8239ZM236.041 109H247.933V87.3239L253.859 81.3977L274.621 109H289.217L262.808 74.1193L287.547 47.9091H273.308L248.967 73.7614H247.933V27.5455H236.041V109ZM298.385 109H310.277V47.9091H298.385V109ZM304.391 38.483C308.487 38.483 311.908 35.3011 311.908 31.4034C311.908 27.5057 308.487 24.2841 304.391 24.2841C300.254 24.2841 296.874 27.5057 296.874 31.4034C296.874 35.3011 300.254 38.483 304.391 38.483ZM338.168 72.7273C338.168 62.983 344.134 57.4148 352.406 57.4148C360.48 57.4148 365.372 62.7045 365.372 71.5739V109H377.264V70.142C377.264 55.0284 368.952 47.1136 356.463 47.1136C347.276 47.1136 341.27 51.3693 338.446 57.8523H337.69V47.9091H326.276V109H338.168V72.7273ZM438.991 62.8239C436.526 53.3182 429.088 47.1136 415.884 47.1136C402.082 47.1136 392.298 54.392 392.298 65.2102C392.298 73.8807 397.548 79.6477 409.003 82.1932L419.344 84.4602C425.23 85.7727 427.974 88.3977 427.974 92.2159C427.974 96.9489 422.923 100.648 415.128 100.648C408.009 100.648 403.435 97.5852 402.003 91.5795L390.509 93.3295C392.497 104.148 401.486 110.233 415.207 110.233C429.963 110.233 440.185 102.398 440.185 91.3409C440.185 82.7102 434.696 77.3807 423.48 74.7955L413.776 72.5682C407.054 70.9773 404.151 68.7102 404.19 64.5739C404.151 59.8807 409.241 56.5398 416.003 56.5398C423.401 56.5398 426.821 60.6364 428.213 64.733L438.991 62.8239ZM478.993 110.233C496.214 110.233 507.47 97.625 507.47 78.733C507.47 59.7216 496.214 47.1136 478.993 47.1136C461.771 47.1136 450.516 59.7216 450.516 78.733C450.516 97.625 461.771 110.233 478.993 110.233ZM479.033 100.25C467.777 100.25 462.527 90.4261 462.527 78.6932C462.527 67 467.777 57.0568 479.033 57.0568C490.209 57.0568 495.459 67 495.459 78.6932C495.459 90.4261 490.209 100.25 479.033 100.25ZM520.744 109H532.636V71.6932C532.636 63.6989 538.801 57.9318 547.233 57.9318C549.699 57.9318 552.483 58.3693 553.438 58.6477V47.2727C552.244 47.1136 549.898 46.9943 548.386 46.9943C541.227 46.9943 535.102 51.0511 532.875 57.6136H532.239V47.9091H520.744V109ZM595.855 47.9091H583.327V33.2727H571.435V47.9091H562.486V57.4545H571.435V93.5284C571.395 104.625 579.866 109.994 589.253 109.795C593.031 109.756 595.577 109.04 596.969 108.523L594.821 98.6989C594.026 98.858 592.554 99.2159 590.645 99.2159C586.787 99.2159 583.327 97.9432 583.327 91.0625V57.4545H595.855V47.9091Z" fill="#2A3F45"/>
<rect y="1" width="139" height="139" rx="25" fill="#CBF6FF"/>
<path d="M70.8869 45.863C74.5453 45.863 78.2487 42.998 78.2487 37.5224C78.2487 33.5956 75.6245 28.3184 72.2745 25.5081C71.4699 24.8328 70.3037 24.8328 69.4992 25.5081C66.1493 28.3184 63.5254 33.5956 63.5254 37.5224C63.5254 42.9977 67.2288 45.863 70.8869 45.863ZM70.8867 30.3237C72.6008 32.4465 73.9034 35.4286 73.9034 37.5224C73.9034 40.437 72.2786 41.4714 70.8867 41.4714C69.4953 41.4714 67.8702 40.4372 67.8702 37.5224C67.8705 35.4284 69.1728 32.4465 70.8867 30.3237ZM96.5471 95.1471C96.5471 91.202 93.3716 87.9925 89.4682 87.9925C85.5654 87.9925 82.3901 91.202 82.3901 95.1471C82.3901 99.0922 85.5654 102.301 89.4682 102.301C93.3716 102.301 96.5471 99.092 96.5471 95.1471ZM86.7352 95.1471C86.7352 93.6235 87.9612 92.3841 89.4682 92.3841C90.9757 92.3841 92.202 93.6235 92.202 95.1471C92.202 96.6705 90.9757 97.9099 89.4682 97.9099C87.9612 97.9099 86.7352 96.6705 86.7352 95.1471ZM56.5353 92.6913C56.6029 93.9021 55.6866 94.939 54.4886 95.0073C52.4174 95.1254 50.2663 95.1854 48.095 95.1854C45.9236 95.1854 43.7723 95.1254 41.7009 95.0073C40.5029 94.939 39.5866 93.9021 39.6542 92.6913C39.7218 91.4807 40.7501 90.5521 41.9457 90.6228C45.9258 90.8497 50.2637 90.8497 54.2435 90.6228C55.4401 90.5572 56.4677 91.4804 56.5353 92.6913ZM114.999 77.4259V103.237C114.999 103.258 115 103.28 115 103.302C115 106.036 112.026 107.826 105.358 109.104C100.151 110.102 93.256 110.652 85.9439 110.652C83.2084 110.652 80.5024 110.575 77.9011 110.421C76.7033 110.351 75.7889 109.312 75.8587 108.102C75.9284 106.891 76.952 105.962 78.1541 106.037C80.6716 106.185 83.2926 106.261 85.9441 106.261C100.517 106.261 109.041 104.103 110.654 102.866V81.7438C109.252 82.2728 107.495 82.7348 105.358 83.1445C100.151 84.1428 93.2564 84.6928 85.9441 84.6928C83.2115 84.6928 80.5055 84.6149 77.9014 84.4615C76.7036 84.391 75.7892 83.3523 75.8589 82.1417C75.9287 80.9309 76.9522 80.0072 78.1543 80.0775C80.6745 80.2258 83.2955 80.3012 85.9444 80.3012C100.517 80.3012 109.041 78.1439 110.654 76.9065V73.2688C109.252 73.7978 107.495 74.2601 105.358 74.6695C100.151 75.6678 93.2564 76.2178 85.9444 76.2178C83.2118 76.2178 80.5058 76.1399 77.9016 75.9865C76.7038 75.916 75.7894 74.8774 75.8592 73.6667C75.9289 72.4559 76.9524 71.5305 78.1546 71.6025C80.6747 71.7508 83.2958 71.8262 85.9446 71.8262C98.92 71.8262 107.1 70.1159 109.876 68.8675C107.1 67.6191 98.92 65.9088 85.9446 65.9088C83.2931 65.9088 80.6723 65.9842 78.1546 66.1323C76.9553 66.204 75.9289 65.2786 75.8592 64.068C75.7894 62.8574 76.7038 61.8188 77.9016 61.7483C80.5031 61.5948 83.2091 61.5172 85.9444 61.5172C93.2567 61.5172 100.151 62.0672 105.358 63.0655C112.027 64.3439 115 66.1335 115 68.8675C115 68.9387 114.998 69.0092 114.994 69.0793C114.997 69.1295 114.999 69.1803 114.999 69.2313V77.2771C115 77.2988 115 77.3205 115 77.3425C115 77.3701 114.999 77.3979 114.999 77.4259ZM48.095 87.1184C51.9981 87.1184 55.1736 83.9089 55.1736 79.9638C55.1736 76.0187 51.9981 72.8094 48.095 72.8094C44.1916 72.8094 41.0161 76.0187 41.0161 79.9638C41.0161 83.9089 44.1916 87.1184 48.095 87.1184ZM48.095 77.201C49.6023 77.201 50.8285 78.4404 50.8285 79.9638C50.8285 81.4874 49.6023 82.7268 48.095 82.7268C46.5875 82.7268 45.3612 81.4874 45.3612 79.9638C45.3614 78.4404 46.5877 77.201 48.095 77.201ZM63.7542 48.4679H57.575V42.2234C57.575 37.6952 54.4516 33.8909 50.2678 32.8959V29.3941H60.3103C61.5102 29.3941 62.4828 28.4112 62.4828 27.1983C62.4828 25.9855 61.5102 25.0026 60.3103 25.0026H48.2022C48.1314 24.9991 48.0593 24.9991 47.9885 25.0026H42.3223C41.1223 25.0026 40.1497 25.9855 40.1497 27.1983C40.1497 28.4112 41.1223 29.3941 42.3223 29.3941H45.9227V32.8957C41.7386 33.8909 38.6152 37.6954 38.6152 42.2234V48.4682H32.436C27.7843 48.4679 24 52.293 24 56.9944V109.601C24 112.756 28.376 114 32.1886 114.731C36.4586 115.549 42.1075 116 48.095 116C54.0823 116 59.7314 115.549 64.0014 114.731C67.8137 114 72.19 112.756 72.19 109.601V56.9944C72.19 52.293 68.4056 48.4679 63.7542 48.4679ZM42.9601 42.2234C42.9601 39.3618 45.2637 37.0335 48.095 37.0335C50.9263 37.0335 53.2297 39.3618 53.2297 42.2234V48.4682H42.9601V42.2234ZM67.8449 109.026C66.2403 110.021 59.4893 111.608 48.095 111.608C36.7007 111.608 29.9496 110.021 28.3451 109.026V101.864C29.5653 102.278 30.9087 102.581 32.1886 102.827C36.4583 103.645 42.1075 104.096 48.095 104.096C54.0823 104.096 59.7314 103.645 64.0014 102.827C65.2815 102.581 66.6249 102.278 67.8449 101.864V109.026ZM67.8449 97.1226C66.2406 98.1173 59.4893 99.7046 48.095 99.7046C36.7007 99.7046 29.9494 98.1173 28.3451 97.1226V66.6983C29.5653 67.1123 30.9085 67.4154 32.1886 67.6608C36.4586 68.4793 42.1077 68.9304 48.0952 68.9304C54.0825 68.9304 59.7314 68.4793 64.0016 67.6608C65.2818 67.4154 66.6251 67.1123 67.8451 66.6983L67.8449 97.1226ZM67.8449 61.9566C66.2403 62.9516 59.489 64.5389 48.095 64.5389C36.7007 64.5389 29.9496 62.9516 28.3451 61.9566V56.9942C28.3451 54.7142 30.1804 52.8595 32.436 52.8595H63.7542C66.0098 52.8595 67.8451 54.7144 67.8451 56.9942L67.8449 61.9566Z" fill="#2A3F45"/>
</svg>
